<svg xmlns="http://www.w3.org/2000/svg" xmlns:xlink="http://www.w3.org/1999/xlink" version="1.1" x="0px" y="0px" viewBox="0 0 595.28 1052.3625" enable-background="new 0 0 595.28 841.89" xml:space="preserve"><path fill-rule="evenodd" clip-rule="evenodd" d="M321.217,520.922c-5.234,20.609,1.511,40.312,8.68,54.569  c3.766,7.493,7.508,14.827,12.091,21.396c4.609,6.598,9.917,12.341,14.265,18.292c-37.907,0.644-77.009,0.097-115.031,0.62  c-1.114-0.848,0.636-1.788,0.929-2.17c8.618-11.169,18.238-23.091,24.498-37.205c6.213-14.025,12.545-36.646,4.648-53.952  c-1.245-0.069-2.074,1.229-2.791,1.861c-12.912,11.42-30.907,18.79-56.118,18.296c-24.999-0.493-42.324-11.012-55.502-24.186  c-14.176-14.176-22.864-30.441-24.49-55.189c-1.719-26.028,5.084-46.683,14.261-64.802c12.862-25.388,33.887-46.29,53.637-66.04  c6.722-6.722,13.459-13.436,20.158-19.533c6.907-6.294,14.038-12.457,20.458-19.534c3.153-3.469,6.414-6.71,9.613-10.229  c15.614-17.19,32.8-35.875,45.581-55.193c0.251,0.062,0.309,0.312,0.617,0.312c21.761,31.721,48.117,59.125,76.585,85.573  c21.175,19.676,42.813,38.323,60.149,61.7c5.763,7.77,10.538,15.856,15.194,25.114c8.923,17.753,16.766,41.264,12.711,66.664  c-3.639,22.768-12.854,40.447-26.664,54.258c-10.152,10.155-22.123,17.941-39.375,21.395c-5.527,1.106-11.845,2.116-17.984,2.17  c-12.203,0.108-23.746-3.411-32.869-7.751C335.369,533.024,327.931,527.139,321.217,520.922z"/><text x="0" y="856.89" fill="#000000" font-size="5px" font-weight="bold" font-family="'Helvetica Neue', Helvetica, Arial-Unicode, Arial, Sans-serif">Created by Albert Sonico</text><text x="0" y="861.89" fill="#000000" font-size="5px" font-weight="bold" font-family="'Helvetica Neue', Helvetica, Arial-Unicode, Arial, Sans-serif">from the Noun Project</text></svg>